<?xml version="1.0" standalone="no"?>
<!DOCTYPE svg PUBLIC "-//W3C//DTD SVG 20010904//EN"
 "http://www.w3.org/TR/2001/REC-SVG-20010904/DTD/svg10.dtd">
<svg version="1.0" xmlns="http://www.w3.org/2000/svg"
 width="225.000000pt" height="225.000000pt" viewBox="0 0 225.000000 225.000000"
 preserveAspectRatio="xMidYMid meet">
<metadata>
Created by potrace 1.15, written by Peter Selinger 2001-2017
</metadata>
<g transform="translate(0.000000,225.000000) scale(0.100000,-0.100000)"
fill="#000000" stroke="none">
<path d="M1025 2017 c-117 -31 -207 -102 -250 -199 -26 -57 -27 -68 -23 -167
5 -116 11 -132 132 -399 31 -68 59 -134 62 -147 6 -23 3 -25 -29 -25 -19 0
-37 -6 -40 -13 -3 -9 8 -13 41 -12 37 0 47 -4 50 -17 3 -16 -5 -18 -62 -18
-37 0 -66 -4 -66 -10 0 -11 4 -12 82 -12 38 0 61 -5 69 -14 6 -8 10 -16 8 -18
-2 -3 -34 -6 -71 -7 -48 -2 -73 2 -92 14 -40 26 -43 0 -5 -33 39 -34 49 -36
49 -14 0 24 133 16 138 -8 3 -16 -5 -18 -67 -18 -96 0 -91 -18 6 -22 66 -3 78
-6 81 -21 4 -17 -3 -19 -70 -16 -71 3 -74 4 -127 51 -49 43 -71 52 -71 28 0
-4 26 -29 59 -56 l58 -47 81 2 c51 1 83 -2 87 -9 11 -18 3 -20 -73 -21 -54 -1
-72 -5 -72 -15 0 -11 18 -14 79 -14 61 0 80 -3 85 -15 4 -13 -8 -15 -74 -15
-53 0 -82 4 -87 13 -4 7 -42 43 -85 80 -52 46 -79 64 -84 56 -4 -8 6 -24 28
-43 19 -17 61 -55 93 -84 l59 -52 77 0 c59 0 78 -3 83 -15 4 -13 -9 -15 -84
-15 -73 0 -90 -3 -90 -15 0 -12 17 -15 90 -15 73 0 90 -3 90 -15 0 -12 -17
-15 -90 -15 -73 0 -90 -3 -90 -15 0 -12 21 -15 123 -16 67 -1 128 -1 135 0 6
1 12 -5 12 -13 0 -13 -22 -16 -132 -18 -172 -4 -174 -22 -3 -26 102 -2 125 -5
125 -17 0 -12 -22 -15 -126 -15 -96 0 -125 -3 -122 -12 3 -9 39 -14 121 -16
95 -2 117 -5 117 -17 0 -12 -20 -15 -110 -15 -91 0 -110 -3 -110 -15 0 -12 18
-15 105 -15 87 0 105 -3 105 -15 0 -12 -18 -15 -100 -15 -82 0 -100 -3 -100
-15 0 -12 17 -15 95 -15 78 0 95 -3 95 -15 0 -12 -17 -15 -90 -15 -75 0 -90
-3 -90 -16 0 -13 13 -15 85 -12 72 2 85 1 83 -12 -3 -12 -22 -16 -86 -18 -104
-4 -105 -22 -2 -28 42 -3 77 -10 82 -17 4 -6 10 -8 14 -5 3 4 27 132 52 284
29 179 48 271 53 258 7 -16 64 -352 84 -496 5 -31 12 -48 21 -48 8 0 13 6 12
13 -2 8 16 12 62 13 86 2 90 2 90 14 0 5 -37 10 -82 12 -62 2 -83 6 -83 17 0
10 20 14 84 15 58 1 86 5 88 14 4 9 -18 12 -85 12 -71 0 -91 3 -96 15 -4 13
10 15 94 15 82 0 100 3 100 15 0 12 -18 15 -99 15 -78 0 -100 3 -104 15 -5 12
12 15 100 17 74 2 108 7 111 16 3 9 -23 12 -107 12 -92 0 -111 3 -111 15 0 12
19 15 113 15 62 0 117 4 123 10 5 5 46 23 89 39 50 18 81 35 83 45 3 14 -10
11 -79 -14 -46 -16 -88 -35 -93 -40 -6 -6 -63 -10 -127 -10 -95 0 -118 3 -123
15 -5 13 13 15 124 15 96 0 131 3 137 13 4 8 39 25 78 39 65 24 96 48 61 48
-26 0 -131 -42 -139 -56 -12 -21 -267 -20 -267 1 0 13 22 15 135 15 110 0 135
3 135 14 0 13 93 56 120 56 13 0 22 18 15 29 -3 5 -32 -1 -66 -15 -34 -14 -64
-23 -66 -20 -14 14 10 33 61 50 56 19 74 32 62 43 -11 12 -119 -32 -124 -50
-4 -15 -20 -17 -148 -17 -121 0 -144 2 -144 15 0 13 23 15 145 15 125 0 145 2
145 16 0 9 -8 14 -17 13 -10 -1 -78 -1 -150 0 -111 1 -133 3 -133 16 0 13 23
15 150 15 103 0 150 -3 150 -11 0 -13 34 -6 89 17 25 11 32 17 23 26 -8 8 -22
6 -53 -6 -29 -12 -45 -14 -52 -7 -7 7 -70 11 -163 11 -105 0 -154 4 -156 11
-3 9 -10 9 -27 0 -12 -7 -24 -11 -26 -9 -2 2 -6 39 -10 83 -3 44 -7 89 -8 100
-2 17 6 21 60 27 65 7 104 23 141 58 35 33 37 18 8 -46 -17 -36 -46 -76 -79
-106 -34 -31 -46 -48 -35 -48 9 0 20 5 23 10 4 6 71 10 168 10 161 0 203 8
180 31 -8 8 -16 8 -31 0 -25 -13 -262 -15 -262 -2 0 9 21 29 33 30 4 1 61 1
127 1 117 0 120 1 120 22 0 17 -3 19 -12 10 -14 -14 -214 -17 -222 -3 -13 21
26 32 111 31 114 -2 113 -2 113 10 0 6 -40 10 -100 10 -82 0 -100 3 -100 15 0
17 2 17 80 21 30 1 61 3 68 3 6 1 12 6 12 11 0 6 -30 10 -70 10 -69 0 -70 0
-70 26 0 26 2 26 46 21 l47 -5 -6 125 c-9 163 -34 368 -57 459 -37 143 -116
252 -212 294 -63 27 -174 35 -243 17z m224 -221 c35 -19 97 -87 118 -131 19
-39 33 -37 33 6 0 32 11 37 30 14 9 -11 11 -31 6 -68 -4 -28 -9 -85 -11 -124
-4 -76 -22 -149 -49 -201 -9 -17 -16 -51 -16 -76 0 -40 -4 -47 -42 -75 -49
-36 -92 -47 -131 -32 -22 9 -27 17 -27 45 0 32 -4 36 -56 60 -116 53 -231 166
-219 215 9 35 102 121 131 121 14 0 27 7 31 18 3 9 23 36 44 59 21 23 54 73
74 112 19 39 40 71 46 71 5 0 22 -6 38 -14z"/>
</g>
</svg>
